<mxfile host="Electron" modified="2025-04-03T16:50:44.416Z" agent="Mozilla/5.0 (Windows NT 10.0; Win64; x64) AppleWebKit/537.36 (KHTML, like Gecko) draw.io/24.1.0 Chrome/120.0.6099.109 Electron/28.1.0 Safari/537.36" etag="wQiofg8OYmM2-q2pQ3NQ" version="24.1.0" type="device" pages="5">
  <diagram name="LaEscobAPP" id="jXzulT7ncKp9Ba39Gk0e">
    <mxGraphModel dx="700" dy="1546" grid="1" gridSize="10" guides="1" tooltips="1" connect="1" arrows="1" fold="1" page="1" pageScale="1" pageWidth="827" pageHeight="1169" math="0" shadow="0">
      <root>
        <mxCell id="0" />
        <mxCell id="1" parent="0" />
        <mxCell id="7Nkl8EQMFSweXb7N9TFz-12" value="" style="edgeStyle=orthogonalEdgeStyle;rounded=0;orthogonalLoop=1;jettySize=auto;html=1;" parent="1" source="02Sp0riOFlJqIubjuP9y-1" target="02Sp0riOFlJqIubjuP9y-2" edge="1">
          <mxGeometry relative="1" as="geometry" />
        </mxCell>
        <mxCell id="02Sp0riOFlJqIubjuP9y-1" value="INIT" style="rounded=1;whiteSpace=wrap;html=1;fillColor=#dae8fc;strokeColor=#6c8ebf;" parent="1" vertex="1">
          <mxGeometry x="310" y="-120" width="120" height="60" as="geometry" />
        </mxCell>
        <mxCell id="7Nkl8EQMFSweXb7N9TFz-14" style="edgeStyle=orthogonalEdgeStyle;rounded=0;orthogonalLoop=1;jettySize=auto;html=1;entryX=0.5;entryY=0;entryDx=0;entryDy=0;" parent="1" source="02Sp0riOFlJqIubjuP9y-2" target="02Sp0riOFlJqIubjuP9y-3" edge="1">
          <mxGeometry relative="1" as="geometry" />
        </mxCell>
        <mxCell id="02Sp0riOFlJqIubjuP9y-2" value="BIENVENIDA" style="rounded=1;whiteSpace=wrap;html=1;fillColor=#dae8fc;strokeColor=#6c8ebf;" parent="1" vertex="1">
          <mxGeometry x="310" y="-10" width="120" height="60" as="geometry" />
        </mxCell>
        <mxCell id="7Nkl8EQMFSweXb7N9TFz-15" style="edgeStyle=orthogonalEdgeStyle;rounded=0;orthogonalLoop=1;jettySize=auto;html=1;entryX=0.5;entryY=0;entryDx=0;entryDy=0;" parent="1" source="02Sp0riOFlJqIubjuP9y-3" target="02Sp0riOFlJqIubjuP9y-4" edge="1">
          <mxGeometry relative="1" as="geometry" />
        </mxCell>
        <mxCell id="02Sp0riOFlJqIubjuP9y-3" value="PARTICIPANTES" style="rounded=1;whiteSpace=wrap;html=1;fillColor=#dae8fc;strokeColor=#6c8ebf;" parent="1" vertex="1">
          <mxGeometry x="310" y="100" width="120" height="70" as="geometry" />
        </mxCell>
        <mxCell id="7Nkl8EQMFSweXb7N9TFz-16" value="" style="edgeStyle=orthogonalEdgeStyle;rounded=0;orthogonalLoop=1;jettySize=auto;html=1;" parent="1" source="02Sp0riOFlJqIubjuP9y-4" target="02Sp0riOFlJqIubjuP9y-10" edge="1">
          <mxGeometry relative="1" as="geometry" />
        </mxCell>
        <mxCell id="02Sp0riOFlJqIubjuP9y-4" value="DECIDIR&amp;nbsp;&lt;div&gt;TURNO&lt;/div&gt;" style="rounded=1;whiteSpace=wrap;html=1;fillColor=#dae8fc;strokeColor=#6c8ebf;" parent="1" vertex="1">
          <mxGeometry x="310" y="210" width="120" height="60" as="geometry" />
        </mxCell>
        <mxCell id="7Nkl8EQMFSweXb7N9TFz-4" style="edgeStyle=orthogonalEdgeStyle;rounded=0;orthogonalLoop=1;jettySize=auto;html=1;entryX=0;entryY=0.5;entryDx=0;entryDy=0;" parent="1" source="7Nkl8EQMFSweXb7N9TFz-17" target="7Nkl8EQMFSweXb7N9TFz-3" edge="1">
          <mxGeometry relative="1" as="geometry" />
        </mxCell>
        <mxCell id="7Nkl8EQMFSweXb7N9TFz-5" style="edgeStyle=orthogonalEdgeStyle;rounded=0;orthogonalLoop=1;jettySize=auto;html=1;entryX=0;entryY=0.5;entryDx=0;entryDy=0;fillColor=#d5e8d4;strokeColor=#82b366;" parent="1" source="02Sp0riOFlJqIubjuP9y-5" target="02Sp0riOFlJqIubjuP9y-10" edge="1">
          <mxGeometry relative="1" as="geometry">
            <Array as="points">
              <mxPoint x="230" y="710" />
              <mxPoint x="230" y="335" />
            </Array>
          </mxGeometry>
        </mxCell>
        <mxCell id="7Nkl8EQMFSweXb7N9TFz-19" style="edgeStyle=orthogonalEdgeStyle;rounded=0;orthogonalLoop=1;jettySize=auto;html=1;entryX=0;entryY=0.5;entryDx=0;entryDy=0;fillColor=#f8cecc;strokeColor=#b85450;" parent="1" source="02Sp0riOFlJqIubjuP9y-5" target="7Nkl8EQMFSweXb7N9TFz-17" edge="1">
          <mxGeometry relative="1" as="geometry" />
        </mxCell>
        <mxCell id="02Sp0riOFlJqIubjuP9y-5" value="Continúa&lt;div&gt;Juego&lt;/div&gt;" style="rhombus;whiteSpace=wrap;html=1;fillColor=#e1d5e7;strokeColor=#9673a6;" parent="1" vertex="1">
          <mxGeometry x="330" y="670" width="80" height="80" as="geometry" />
        </mxCell>
        <mxCell id="7Nkl8EQMFSweXb7N9TFz-11" style="edgeStyle=orthogonalEdgeStyle;rounded=0;orthogonalLoop=1;jettySize=auto;html=1;entryX=0.5;entryY=0;entryDx=0;entryDy=0;" parent="1" source="02Sp0riOFlJqIubjuP9y-6" target="02Sp0riOFlJqIubjuP9y-1" edge="1">
          <mxGeometry relative="1" as="geometry" />
        </mxCell>
        <mxCell id="02Sp0riOFlJqIubjuP9y-6" value="La escoba" style="ellipse;whiteSpace=wrap;html=1;fillColor=#e1d5e7;strokeColor=#9673a6;" parent="1" vertex="1">
          <mxGeometry x="310" y="-270" width="120" height="80" as="geometry" />
        </mxCell>
        <mxCell id="02Sp0riOFlJqIubjuP9y-8" value="Jugador" style="shape=umlActor;verticalLabelPosition=bottom;verticalAlign=top;html=1;outlineConnect=0;" parent="1" vertex="1">
          <mxGeometry x="220" y="200" width="30" height="60" as="geometry" />
        </mxCell>
        <mxCell id="7Nkl8EQMFSweXb7N9TFz-1" value="" style="edgeStyle=orthogonalEdgeStyle;rounded=0;orthogonalLoop=1;jettySize=auto;html=1;" parent="1" source="02Sp0riOFlJqIubjuP9y-10" target="02Sp0riOFlJqIubjuP9y-12" edge="1">
          <mxGeometry relative="1" as="geometry" />
        </mxCell>
        <mxCell id="02Sp0riOFlJqIubjuP9y-10" value="JUGAR RONDA" style="rounded=1;whiteSpace=wrap;html=1;fillColor=#d5e8d4;strokeColor=#82b366;" parent="1" vertex="1">
          <mxGeometry x="310" y="310" width="120" height="50" as="geometry" />
        </mxCell>
        <mxCell id="7Nkl8EQMFSweXb7N9TFz-7" style="edgeStyle=orthogonalEdgeStyle;rounded=0;orthogonalLoop=1;jettySize=auto;html=1;" parent="1" source="02Sp0riOFlJqIubjuP9y-12" target="7Nkl8EQMFSweXb7N9TFz-6" edge="1">
          <mxGeometry relative="1" as="geometry" />
        </mxCell>
        <mxCell id="02Sp0riOFlJqIubjuP9y-12" value="CALCULAR PUNTUACIÓN" style="rounded=1;whiteSpace=wrap;html=1;fillColor=#d5e8d4;strokeColor=#82b366;" parent="1" vertex="1">
          <mxGeometry x="310" y="410" width="120" height="60" as="geometry" />
        </mxCell>
        <mxCell id="7Nkl8EQMFSweXb7N9TFz-3" value="Fin" style="ellipse;whiteSpace=wrap;html=1;fillColor=#f8cecc;strokeColor=#b85450;" parent="1" vertex="1">
          <mxGeometry x="827" y="670" width="120" height="80" as="geometry" />
        </mxCell>
        <mxCell id="7Nkl8EQMFSweXb7N9TFz-22" style="edgeStyle=orthogonalEdgeStyle;rounded=0;orthogonalLoop=1;jettySize=auto;html=1;entryX=0;entryY=0.5;entryDx=0;entryDy=0;" parent="1" source="7Nkl8EQMFSweXb7N9TFz-6" target="7Nkl8EQMFSweXb7N9TFz-20" edge="1">
          <mxGeometry relative="1" as="geometry" />
        </mxCell>
        <mxCell id="7Nkl8EQMFSweXb7N9TFz-6" value="MOSTRAR PUNTUACIÓN" style="rounded=1;whiteSpace=wrap;html=1;fillColor=#d5e8d4;strokeColor=#82b366;" parent="1" vertex="1">
          <mxGeometry x="310" y="537.5" width="120" height="60" as="geometry" />
        </mxCell>
        <mxCell id="7Nkl8EQMFSweXb7N9TFz-9" value="" style="shape=curlyBracket;whiteSpace=wrap;html=1;rounded=1;flipH=1;labelPosition=right;verticalLabelPosition=middle;align=left;verticalAlign=middle;" parent="1" vertex="1">
          <mxGeometry x="480" y="320" width="20" height="270" as="geometry" />
        </mxCell>
        <mxCell id="7Nkl8EQMFSweXb7N9TFz-10" value="N rondas = 1 set" style="text;html=1;align=center;verticalAlign=middle;whiteSpace=wrap;rounded=0;" parent="1" vertex="1">
          <mxGeometry x="500" y="440" width="60" height="30" as="geometry" />
        </mxCell>
        <mxCell id="7Nkl8EQMFSweXb7N9TFz-17" value="GUARDAR INFO DEL JUEGO" style="rounded=1;whiteSpace=wrap;html=1;fillColor=#ffe6cc;strokeColor=#d79b00;" parent="1" vertex="1">
          <mxGeometry x="660" y="680" width="120" height="60" as="geometry" />
        </mxCell>
        <mxCell id="7Nkl8EQMFSweXb7N9TFz-23" style="edgeStyle=orthogonalEdgeStyle;rounded=0;orthogonalLoop=1;jettySize=auto;html=1;fillColor=#f8cecc;strokeColor=#b85450;" parent="1" source="7Nkl8EQMFSweXb7N9TFz-20" target="02Sp0riOFlJqIubjuP9y-5" edge="1">
          <mxGeometry relative="1" as="geometry">
            <Array as="points">
              <mxPoint x="620" y="620" />
              <mxPoint x="370" y="620" />
            </Array>
          </mxGeometry>
        </mxCell>
        <mxCell id="7Nkl8EQMFSweXb7N9TFz-20" value="CurrentSet = 3" style="rhombus;whiteSpace=wrap;html=1;fillColor=#e1d5e7;strokeColor=#9673a6;" parent="1" vertex="1">
          <mxGeometry x="560" y="520" width="120" height="95" as="geometry" />
        </mxCell>
        <mxCell id="7Nkl8EQMFSweXb7N9TFz-21" style="edgeStyle=orthogonalEdgeStyle;rounded=0;orthogonalLoop=1;jettySize=auto;html=1;entryX=0.556;entryY=-0.006;entryDx=0;entryDy=0;entryPerimeter=0;fillColor=#d5e8d4;strokeColor=#82b366;exitX=1;exitY=0.5;exitDx=0;exitDy=0;" parent="1" source="7Nkl8EQMFSweXb7N9TFz-20" target="7Nkl8EQMFSweXb7N9TFz-17" edge="1">
          <mxGeometry relative="1" as="geometry">
            <mxPoint x="690" y="570" as="sourcePoint" />
          </mxGeometry>
        </mxCell>
      </root>
    </mxGraphModel>
  </diagram>
  <diagram name="Init" id="j7Bs-wu9QVIY529I_cPv">
    <mxGraphModel dx="912" dy="1546" grid="1" gridSize="10" guides="1" tooltips="1" connect="1" arrows="1" fold="1" page="1" pageScale="1" pageWidth="827" pageHeight="1169" math="0" shadow="0">
      <root>
        <mxCell id="3EOBzh186hUlt6V4WWX0-0" />
        <mxCell id="3EOBzh186hUlt6V4WWX0-1" parent="3EOBzh186hUlt6V4WWX0-0" />
        <mxCell id="AqQ7uDNemNb-gBIa72hI-2" style="edgeStyle=orthogonalEdgeStyle;rounded=0;orthogonalLoop=1;jettySize=auto;html=1;" parent="3EOBzh186hUlt6V4WWX0-1" source="AqQ7uDNemNb-gBIa72hI-0" target="AqQ7uDNemNb-gBIa72hI-1" edge="1">
          <mxGeometry relative="1" as="geometry" />
        </mxCell>
        <mxCell id="AqQ7uDNemNb-gBIa72hI-0" value="INIT" style="ellipse;whiteSpace=wrap;html=1;fillColor=#e1d5e7;strokeColor=#9673a6;" parent="3EOBzh186hUlt6V4WWX0-1" vertex="1">
          <mxGeometry x="310" y="-270" width="120" height="80" as="geometry" />
        </mxCell>
        <mxCell id="AqQ7uDNemNb-gBIa72hI-4" style="edgeStyle=orthogonalEdgeStyle;rounded=0;orthogonalLoop=1;jettySize=auto;html=1;entryX=0.5;entryY=0;entryDx=0;entryDy=0;" parent="3EOBzh186hUlt6V4WWX0-1" source="AqQ7uDNemNb-gBIa72hI-1" target="AqQ7uDNemNb-gBIa72hI-3" edge="1">
          <mxGeometry relative="1" as="geometry" />
        </mxCell>
        <mxCell id="AqQ7uDNemNb-gBIa72hI-1" value="Baraja (crear e inicializar)" style="rounded=1;whiteSpace=wrap;html=1;" parent="3EOBzh186hUlt6V4WWX0-1" vertex="1">
          <mxGeometry x="310" y="-120" width="120" height="60" as="geometry" />
        </mxCell>
        <mxCell id="ERFKb1zFDXnAOgNNbdzC-1" value="" style="edgeStyle=orthogonalEdgeStyle;rounded=0;orthogonalLoop=1;jettySize=auto;html=1;" edge="1" parent="3EOBzh186hUlt6V4WWX0-1" source="AqQ7uDNemNb-gBIa72hI-3" target="ERFKb1zFDXnAOgNNbdzC-0">
          <mxGeometry relative="1" as="geometry" />
        </mxCell>
        <mxCell id="AqQ7uDNemNb-gBIa72hI-3" value="Crear Tablero / Mesa" style="rounded=1;whiteSpace=wrap;html=1;" parent="3EOBzh186hUlt6V4WWX0-1" vertex="1">
          <mxGeometry x="310" width="120" height="60" as="geometry" />
        </mxCell>
        <mxCell id="w_G52MeiUXydsJcszk6x-1" value="" style="edgeStyle=orthogonalEdgeStyle;rounded=0;orthogonalLoop=1;jettySize=auto;html=1;" edge="1" parent="3EOBzh186hUlt6V4WWX0-1" source="ERFKb1zFDXnAOgNNbdzC-0" target="w_G52MeiUXydsJcszk6x-0">
          <mxGeometry relative="1" as="geometry" />
        </mxCell>
        <mxCell id="ERFKb1zFDXnAOgNNbdzC-0" value="BD de puntuaciones" style="rounded=1;whiteSpace=wrap;html=1;" vertex="1" parent="3EOBzh186hUlt6V4WWX0-1">
          <mxGeometry x="310" y="110" width="120" height="60" as="geometry" />
        </mxCell>
        <mxCell id="w_G52MeiUXydsJcszk6x-0" value="Fin" style="ellipse;whiteSpace=wrap;html=1;fillColor=#f8cecc;strokeColor=#b85450;" vertex="1" parent="3EOBzh186hUlt6V4WWX0-1">
          <mxGeometry x="310" y="260" width="120" height="80" as="geometry" />
        </mxCell>
      </root>
    </mxGraphModel>
  </diagram>
  <diagram name="Participantes" id="j5_zwX4YtGoeKdQqUKkA">
    <mxGraphModel dx="912" dy="1546" grid="1" gridSize="10" guides="1" tooltips="1" connect="1" arrows="1" fold="1" page="1" pageScale="1" pageWidth="827" pageHeight="1169" math="0" shadow="0">
      <root>
        <mxCell id="Lsq35Jg7h0GKMljGVsFl-0" />
        <mxCell id="Lsq35Jg7h0GKMljGVsFl-1" parent="Lsq35Jg7h0GKMljGVsFl-0" />
        <mxCell id="JZSOYapgDFiTU_QHHA50-0" style="edgeStyle=orthogonalEdgeStyle;rounded=0;orthogonalLoop=1;jettySize=auto;html=1;" edge="1" parent="Lsq35Jg7h0GKMljGVsFl-1" target="JZSOYapgDFiTU_QHHA50-2">
          <mxGeometry relative="1" as="geometry">
            <mxPoint x="370" y="-190" as="sourcePoint" />
          </mxGeometry>
        </mxCell>
        <mxCell id="JZSOYapgDFiTU_QHHA50-1" style="edgeStyle=orthogonalEdgeStyle;rounded=0;orthogonalLoop=1;jettySize=auto;html=1;entryX=0.5;entryY=0;entryDx=0;entryDy=0;" edge="1" parent="Lsq35Jg7h0GKMljGVsFl-1" source="JZSOYapgDFiTU_QHHA50-2" target="JZSOYapgDFiTU_QHHA50-4">
          <mxGeometry relative="1" as="geometry" />
        </mxCell>
        <mxCell id="JZSOYapgDFiTU_QHHA50-2" value="Pedir nombres" style="rounded=1;whiteSpace=wrap;html=1;" vertex="1" parent="Lsq35Jg7h0GKMljGVsFl-1">
          <mxGeometry x="310" y="-120" width="120" height="60" as="geometry" />
        </mxCell>
        <mxCell id="JZSOYapgDFiTU_QHHA50-3" value="" style="edgeStyle=orthogonalEdgeStyle;rounded=0;orthogonalLoop=1;jettySize=auto;html=1;entryX=0.5;entryY=0;entryDx=0;entryDy=0;" edge="1" parent="Lsq35Jg7h0GKMljGVsFl-1" source="JZSOYapgDFiTU_QHHA50-4" target="JZSOYapgDFiTU_QHHA50-7">
          <mxGeometry relative="1" as="geometry">
            <mxPoint x="370" y="110" as="targetPoint" />
          </mxGeometry>
        </mxCell>
        <mxCell id="JZSOYapgDFiTU_QHHA50-4" value="Inicializar PlayerStats" style="rounded=1;whiteSpace=wrap;html=1;" vertex="1" parent="Lsq35Jg7h0GKMljGVsFl-1">
          <mxGeometry x="310" width="120" height="60" as="geometry" />
        </mxCell>
        <mxCell id="JZSOYapgDFiTU_QHHA50-7" value="Fin" style="ellipse;whiteSpace=wrap;html=1;fillColor=#f8cecc;strokeColor=#b85450;" vertex="1" parent="Lsq35Jg7h0GKMljGVsFl-1">
          <mxGeometry x="310" y="260" width="120" height="80" as="geometry" />
        </mxCell>
        <mxCell id="eUV2xFUgZWL8Yp3sephO-0" value="Participantes" style="ellipse;whiteSpace=wrap;html=1;fillColor=#e1d5e7;strokeColor=#9673a6;" vertex="1" parent="Lsq35Jg7h0GKMljGVsFl-1">
          <mxGeometry x="310" y="-270" width="120" height="80" as="geometry" />
        </mxCell>
      </root>
    </mxGraphModel>
  </diagram>
  <diagram name="DecidirTurno" id="_vLwjOqQkCMYpwWVNIm8">
    <mxGraphModel dx="460" dy="1546" grid="1" gridSize="10" guides="1" tooltips="1" connect="1" arrows="1" fold="1" page="1" pageScale="1" pageWidth="827" pageHeight="1169" math="0" shadow="0">
      <root>
        <mxCell id="1a-e6WaZ6gjW7EQpv-S4-0" />
        <mxCell id="1a-e6WaZ6gjW7EQpv-S4-1" parent="1a-e6WaZ6gjW7EQpv-S4-0" />
        <mxCell id="Ce_06t-tcTzplRx5l4W2-1" style="edgeStyle=orthogonalEdgeStyle;rounded=0;orthogonalLoop=1;jettySize=auto;html=1;entryX=0.5;entryY=0;entryDx=0;entryDy=0;" edge="1" parent="1a-e6WaZ6gjW7EQpv-S4-1" source="BuVmsRwJ1-oTelh7q6Ed-0">
          <mxGeometry relative="1" as="geometry">
            <mxPoint x="370" y="-120" as="targetPoint" />
          </mxGeometry>
        </mxCell>
        <mxCell id="BuVmsRwJ1-oTelh7q6Ed-0" value="DecidirTurno" style="ellipse;whiteSpace=wrap;html=1;fillColor=#e1d5e7;strokeColor=#9673a6;" vertex="1" parent="1a-e6WaZ6gjW7EQpv-S4-1">
          <mxGeometry x="310" y="-270" width="120" height="80" as="geometry" />
        </mxCell>
        <mxCell id="3lfBBrH4eISZwWpyTto9-0" value="2 cartas, 2 jugadores" style="text;html=1;align=center;verticalAlign=middle;whiteSpace=wrap;rounded=0;" vertex="1" parent="1a-e6WaZ6gjW7EQpv-S4-1">
          <mxGeometry x="470" y="-270" width="60" height="30" as="geometry" />
        </mxCell>
        <mxCell id="3lfBBrH4eISZwWpyTto9-4" style="edgeStyle=orthogonalEdgeStyle;rounded=0;orthogonalLoop=1;jettySize=auto;html=1;entryX=0.5;entryY=0;entryDx=0;entryDy=0;fillColor=#d5e8d4;strokeColor=#82b366;" edge="1" parent="1a-e6WaZ6gjW7EQpv-S4-1" source="3lfBBrH4eISZwWpyTto9-1" target="3lfBBrH4eISZwWpyTto9-2">
          <mxGeometry relative="1" as="geometry">
            <Array as="points">
              <mxPoint x="260" y="-80" />
              <mxPoint x="260" />
            </Array>
          </mxGeometry>
        </mxCell>
        <mxCell id="3lfBBrH4eISZwWpyTto9-5" style="edgeStyle=orthogonalEdgeStyle;rounded=0;orthogonalLoop=1;jettySize=auto;html=1;fillColor=#f8cecc;strokeColor=#b85450;" edge="1" parent="1a-e6WaZ6gjW7EQpv-S4-1" source="3lfBBrH4eISZwWpyTto9-1" target="3lfBBrH4eISZwWpyTto9-3">
          <mxGeometry relative="1" as="geometry" />
        </mxCell>
        <mxCell id="3lfBBrH4eISZwWpyTto9-1" value="j1.c &amp;gt; j2.c" style="rhombus;whiteSpace=wrap;html=1;" vertex="1" parent="1a-e6WaZ6gjW7EQpv-S4-1">
          <mxGeometry x="330" y="-120" width="80" height="80" as="geometry" />
        </mxCell>
        <mxCell id="3lfBBrH4eISZwWpyTto9-2" value="J1 -&amp;gt; primero" style="rounded=1;whiteSpace=wrap;html=1;" vertex="1" parent="1a-e6WaZ6gjW7EQpv-S4-1">
          <mxGeometry x="200" y="20" width="120" height="60" as="geometry" />
        </mxCell>
        <mxCell id="3lfBBrH4eISZwWpyTto9-3" value="J2 -&amp;gt; primero" style="rounded=1;whiteSpace=wrap;html=1;" vertex="1" parent="1a-e6WaZ6gjW7EQpv-S4-1">
          <mxGeometry x="500" y="20" width="120" height="60" as="geometry" />
        </mxCell>
      </root>
    </mxGraphModel>
  </diagram>
  <diagram name="JugarRonda" id="9Mce7ONP-ufGT60_BJmB">
    <mxGraphModel dx="737" dy="1566" grid="1" gridSize="10" guides="1" tooltips="1" connect="1" arrows="1" fold="1" page="1" pageScale="1" pageWidth="827" pageHeight="1169" math="0" shadow="0">
      <root>
        <mxCell id="LKDxi_NU61JfcwAHHzBB-0" />
        <mxCell id="LKDxi_NU61JfcwAHHzBB-1" parent="LKDxi_NU61JfcwAHHzBB-0" />
        <mxCell id="3QK37BBKbmv-_ILboMSb-2" style="edgeStyle=orthogonalEdgeStyle;rounded=0;orthogonalLoop=1;jettySize=auto;html=1;entryX=0.5;entryY=0;entryDx=0;entryDy=0;" edge="1" parent="LKDxi_NU61JfcwAHHzBB-1" source="3QK37BBKbmv-_ILboMSb-0" target="3QK37BBKbmv-_ILboMSb-1">
          <mxGeometry relative="1" as="geometry" />
        </mxCell>
        <mxCell id="3QK37BBKbmv-_ILboMSb-0" value="Jugar Ronda" style="ellipse;whiteSpace=wrap;html=1;fillColor=#e1d5e7;strokeColor=#9673a6;" vertex="1" parent="LKDxi_NU61JfcwAHHzBB-1">
          <mxGeometry x="310" y="-270" width="120" height="80" as="geometry" />
        </mxCell>
        <mxCell id="3QK37BBKbmv-_ILboMSb-6" value="" style="edgeStyle=orthogonalEdgeStyle;rounded=0;orthogonalLoop=1;jettySize=auto;html=1;" edge="1" parent="LKDxi_NU61JfcwAHHzBB-1" source="3QK37BBKbmv-_ILboMSb-1" target="3QK37BBKbmv-_ILboMSb-4">
          <mxGeometry relative="1" as="geometry" />
        </mxCell>
        <mxCell id="3QK37BBKbmv-_ILboMSb-1" value="Barajear" style="rounded=1;whiteSpace=wrap;html=1;" vertex="1" parent="LKDxi_NU61JfcwAHHzBB-1">
          <mxGeometry x="310" y="-110" width="120" height="60" as="geometry" />
        </mxCell>
        <mxCell id="3QK37BBKbmv-_ILboMSb-3" value="Baraja,&lt;div&gt;Jugadores&lt;/div&gt;" style="text;html=1;align=center;verticalAlign=middle;whiteSpace=wrap;rounded=0;" vertex="1" parent="LKDxi_NU61JfcwAHHzBB-1">
          <mxGeometry x="470" y="-260" width="60" height="30" as="geometry" />
        </mxCell>
        <mxCell id="3QK37BBKbmv-_ILboMSb-7" value="" style="edgeStyle=orthogonalEdgeStyle;rounded=0;orthogonalLoop=1;jettySize=auto;html=1;" edge="1" parent="LKDxi_NU61JfcwAHHzBB-1" source="3QK37BBKbmv-_ILboMSb-4" target="3QK37BBKbmv-_ILboMSb-5">
          <mxGeometry relative="1" as="geometry" />
        </mxCell>
        <mxCell id="3QK37BBKbmv-_ILboMSb-4" value="RepartirCartas" style="rounded=1;whiteSpace=wrap;html=1;" vertex="1" parent="LKDxi_NU61JfcwAHHzBB-1">
          <mxGeometry x="310" y="-10" width="120" height="60" as="geometry" />
        </mxCell>
        <mxCell id="3QK37BBKbmv-_ILboMSb-10" value="" style="edgeStyle=orthogonalEdgeStyle;rounded=0;orthogonalLoop=1;jettySize=auto;html=1;" edge="1" parent="LKDxi_NU61JfcwAHHzBB-1" source="3QK37BBKbmv-_ILboMSb-5">
          <mxGeometry relative="1" as="geometry">
            <mxPoint x="370" y="230" as="targetPoint" />
          </mxGeometry>
        </mxCell>
        <mxCell id="3QK37BBKbmv-_ILboMSb-5" value="InitTablero" style="rounded=1;whiteSpace=wrap;html=1;" vertex="1" parent="LKDxi_NU61JfcwAHHzBB-1">
          <mxGeometry x="310" y="100" width="120" height="60" as="geometry" />
        </mxCell>
        <mxCell id="3QK37BBKbmv-_ILboMSb-18" style="edgeStyle=orthogonalEdgeStyle;rounded=0;orthogonalLoop=1;jettySize=auto;html=1;" edge="1" parent="LKDxi_NU61JfcwAHHzBB-1" source="3QK37BBKbmv-_ILboMSb-13" target="3QK37BBKbmv-_ILboMSb-14">
          <mxGeometry relative="1" as="geometry" />
        </mxCell>
        <mxCell id="3QK37BBKbmv-_ILboMSb-13" value="J.turno analizarJugada()" style="rounded=1;whiteSpace=wrap;html=1;" vertex="1" parent="LKDxi_NU61JfcwAHHzBB-1">
          <mxGeometry x="310" y="230" width="120" height="60" as="geometry" />
        </mxCell>
        <mxCell id="3QK37BBKbmv-_ILboMSb-24" style="edgeStyle=orthogonalEdgeStyle;rounded=0;orthogonalLoop=1;jettySize=auto;html=1;entryX=0.5;entryY=1;entryDx=0;entryDy=0;" edge="1" parent="LKDxi_NU61JfcwAHHzBB-1" source="3QK37BBKbmv-_ILboMSb-14" target="3QK37BBKbmv-_ILboMSb-29">
          <mxGeometry relative="1" as="geometry" />
        </mxCell>
        <mxCell id="3QK37BBKbmv-_ILboMSb-14" value="J.turno jugar()" style="rounded=1;whiteSpace=wrap;html=1;" vertex="1" parent="LKDxi_NU61JfcwAHHzBB-1">
          <mxGeometry x="310" y="330" width="120" height="60" as="geometry" />
        </mxCell>
        <mxCell id="3QK37BBKbmv-_ILboMSb-17" style="edgeStyle=orthogonalEdgeStyle;rounded=0;orthogonalLoop=1;jettySize=auto;html=1;entryX=0;entryY=0.5;entryDx=0;entryDy=0;fillColor=#d5e8d4;strokeColor=#000000;" edge="1" parent="LKDxi_NU61JfcwAHHzBB-1" source="3QK37BBKbmv-_ILboMSb-21" target="3QK37BBKbmv-_ILboMSb-13">
          <mxGeometry relative="1" as="geometry">
            <Array as="points">
              <mxPoint x="200" y="260" />
            </Array>
          </mxGeometry>
        </mxCell>
        <mxCell id="3QK37BBKbmv-_ILboMSb-21" value="cambiarTurno" style="rounded=1;whiteSpace=wrap;html=1;" vertex="1" parent="LKDxi_NU61JfcwAHHzBB-1">
          <mxGeometry x="140" y="350" width="120" height="60" as="geometry" />
        </mxCell>
        <mxCell id="3QK37BBKbmv-_ILboMSb-26" style="edgeStyle=orthogonalEdgeStyle;rounded=0;orthogonalLoop=1;jettySize=auto;html=1;fillColor=#f8cecc;strokeColor=#b85450;exitX=0.5;exitY=1;exitDx=0;exitDy=0;" edge="1" parent="LKDxi_NU61JfcwAHHzBB-1" source="3QK37BBKbmv-_ILboMSb-23" target="3QK37BBKbmv-_ILboMSb-25">
          <mxGeometry relative="1" as="geometry">
            <Array as="points">
              <mxPoint x="750" y="410" />
              <mxPoint x="750" y="580" />
            </Array>
          </mxGeometry>
        </mxCell>
        <mxCell id="3QK37BBKbmv-_ILboMSb-28" style="edgeStyle=orthogonalEdgeStyle;rounded=0;orthogonalLoop=1;jettySize=auto;html=1;entryX=0.75;entryY=1;entryDx=0;entryDy=0;fillColor=#d5e8d4;strokeColor=#82b366;exitX=0;exitY=0.5;exitDx=0;exitDy=0;" edge="1" parent="LKDxi_NU61JfcwAHHzBB-1" source="3QK37BBKbmv-_ILboMSb-23" target="3QK37BBKbmv-_ILboMSb-21">
          <mxGeometry relative="1" as="geometry">
            <Array as="points">
              <mxPoint x="590" y="360" />
              <mxPoint x="590" y="430" />
              <mxPoint x="230" y="430" />
            </Array>
          </mxGeometry>
        </mxCell>
        <mxCell id="3QK37BBKbmv-_ILboMSb-23" value="j.tieneCartas" style="rhombus;whiteSpace=wrap;html=1;" vertex="1" parent="LKDxi_NU61JfcwAHHzBB-1">
          <mxGeometry x="600" y="310" width="120" height="100" as="geometry" />
        </mxCell>
        <mxCell id="3QK37BBKbmv-_ILboMSb-25" value="RepartirCartas" style="rounded=1;whiteSpace=wrap;html=1;" vertex="1" parent="LKDxi_NU61JfcwAHHzBB-1">
          <mxGeometry x="430" y="555" width="120" height="60" as="geometry" />
        </mxCell>
        <mxCell id="3QK37BBKbmv-_ILboMSb-27" style="edgeStyle=orthogonalEdgeStyle;rounded=0;orthogonalLoop=1;jettySize=auto;html=1;entryX=0.5;entryY=1;entryDx=0;entryDy=0;" edge="1" parent="LKDxi_NU61JfcwAHHzBB-1" source="3QK37BBKbmv-_ILboMSb-25" target="3QK37BBKbmv-_ILboMSb-21">
          <mxGeometry relative="1" as="geometry">
            <mxPoint x="379.96000000000004" y="530" as="targetPoint" />
          </mxGeometry>
        </mxCell>
        <mxCell id="3QK37BBKbmv-_ILboMSb-31" style="edgeStyle=orthogonalEdgeStyle;rounded=0;orthogonalLoop=1;jettySize=auto;html=1;entryX=0;entryY=0.5;entryDx=0;entryDy=0;fillColor=#d5e8d4;strokeColor=#82b366;exitX=0.468;exitY=0;exitDx=0;exitDy=0;exitPerimeter=0;" edge="1" parent="LKDxi_NU61JfcwAHHzBB-1" source="3QK37BBKbmv-_ILboMSb-29" target="3QK37BBKbmv-_ILboMSb-30">
          <mxGeometry relative="1" as="geometry">
            <Array as="points">
              <mxPoint x="560" y="170" />
              <mxPoint x="560" y="70" />
            </Array>
          </mxGeometry>
        </mxCell>
        <mxCell id="3QK37BBKbmv-_ILboMSb-29" value="j.haRecogidoCartas y numRonda &amp;lt;= 3" style="rhombus;whiteSpace=wrap;html=1;fillColor=#a20025;fontColor=#ffffff;strokeColor=#6F0000;" vertex="1" parent="LKDxi_NU61JfcwAHHzBB-1">
          <mxGeometry x="490" y="180" width="150" height="130" as="geometry" />
        </mxCell>
        <mxCell id="3QK37BBKbmv-_ILboMSb-33" style="edgeStyle=orthogonalEdgeStyle;rounded=0;orthogonalLoop=1;jettySize=auto;html=1;entryX=1;entryY=0.5;entryDx=0;entryDy=0;exitX=1;exitY=0.5;exitDx=0;exitDy=0;" edge="1" parent="LKDxi_NU61JfcwAHHzBB-1" source="3QK37BBKbmv-_ILboMSb-30" target="3QK37BBKbmv-_ILboMSb-23">
          <mxGeometry relative="1" as="geometry">
            <Array as="points">
              <mxPoint x="800" y="70" />
              <mxPoint x="800" y="360" />
            </Array>
          </mxGeometry>
        </mxCell>
        <mxCell id="3QK37BBKbmv-_ILboMSb-30" value="j.haRecogidoCartas" style="rounded=0;whiteSpace=wrap;html=1;" vertex="1" parent="LKDxi_NU61JfcwAHHzBB-1">
          <mxGeometry x="630" y="40" width="120" height="60" as="geometry" />
        </mxCell>
        <mxCell id="3QK37BBKbmv-_ILboMSb-32" style="edgeStyle=orthogonalEdgeStyle;rounded=0;orthogonalLoop=1;jettySize=auto;html=1;entryX=0.5;entryY=0;entryDx=0;entryDy=0;fillColor=#f8cecc;strokeColor=#b85450;exitX=1;exitY=0.5;exitDx=0;exitDy=0;" edge="1" parent="LKDxi_NU61JfcwAHHzBB-1" source="3QK37BBKbmv-_ILboMSb-29" target="3QK37BBKbmv-_ILboMSb-23">
          <mxGeometry relative="1" as="geometry">
            <Array as="points">
              <mxPoint x="640" y="240" />
              <mxPoint x="660" y="240" />
            </Array>
          </mxGeometry>
        </mxCell>
      </root>
    </mxGraphModel>
  </diagram>
</mxfile>
